<svg width="49" height="49" viewBox="0 0 49 49" fill="none" xmlns="http://www.w3.org/2000/svg">
<path d="M24.5 18.9404C23.4004 18.9404 22.3255 19.2665 21.4113 19.8774C20.497 20.4883 19.7844 21.3566 19.3637 22.3724C18.9429 23.3883 18.8328 24.5061 19.0473 25.5846C19.2618 26.663 19.7913 27.6536 20.5688 28.4312C21.3463 29.2087 22.3369 29.7382 23.4154 29.9527C24.4938 30.1672 25.6117 30.0571 26.6275 29.6363C27.6434 29.2155 28.5117 28.5029 29.1226 27.5887C29.7335 26.6744 30.0595 25.5995 30.0595 24.5C30.0577 23.026 29.4714 21.613 28.4292 20.5708C27.387 19.5286 25.9739 18.9422 24.5 18.9404Z" fill="white"/>
<path d="M31.0405 10.338H17.9595C15.9389 10.3403 14.0017 11.1441 12.5729 12.5729C11.1441 14.0017 10.3403 15.9389 10.338 17.9595V31.0405C10.3403 33.0611 11.1441 34.9983 12.5729 36.4271C14.0017 37.8559 15.9389 38.6596 17.9595 38.662H31.0405C33.0611 38.6596 34.9983 37.8559 36.4271 36.4271C37.8559 34.9983 38.6596 33.0611 38.662 31.0405V17.9595C38.6596 15.9389 37.8559 14.0017 36.4271 12.5729C34.9983 11.1441 33.0611 10.3403 31.0405 10.338ZM24.5 32.9966C22.8195 32.9966 21.1768 32.4983 19.7795 31.5647C18.3823 30.631 17.2932 29.304 16.6502 27.7515C16.0071 26.1989 15.8388 24.4906 16.1667 22.8424C16.4945 21.1942 17.3037 19.6803 18.492 18.492C19.6803 17.3037 21.1942 16.4945 22.8424 16.1667C24.4906 15.8388 26.1989 16.0071 27.7515 16.6502C29.304 17.2932 30.631 18.3823 31.5647 19.7795C32.4983 21.1768 32.9966 22.8195 32.9966 24.5C32.994 26.7526 32.098 28.9123 30.5051 30.5051C28.9123 32.098 26.7526 32.994 24.5 32.9966ZM33.8364 17.2911C33.4216 17.2911 33.016 17.1681 32.6711 16.9377C32.3261 16.7073 32.0572 16.3798 31.8983 15.9965C31.7394 15.6133 31.6977 15.1916 31.7784 14.7847C31.8591 14.3778 32.0586 14.0039 32.3518 13.7103C32.6449 13.4168 33.0185 13.2167 33.4253 13.1354C33.8321 13.0541 34.2539 13.0953 34.6374 13.2536C35.0208 13.412 35.3487 13.6805 35.5796 14.0251C35.8105 14.3698 35.934 14.7751 35.9346 15.19C35.9351 15.4659 35.8813 15.7391 35.776 15.9941C35.6708 16.2491 35.5164 16.4809 35.3215 16.6762C35.1266 16.8714 34.8951 17.0263 34.6403 17.132C34.3855 17.2377 34.1123 17.2921 33.8364 17.2921V17.2911Z" fill="white"/>
<path d="M47.5153 12.2245C47.5126 11.3933 47.4365 10.5639 47.2879 9.7461C47.0978 8.74748 46.8303 7.77434 46.352 6.87176C45.8539 5.92081 45.2057 5.05645 44.4322 4.312C43.2639 3.16832 41.8207 2.34481 40.2417 1.9208C38.7884 1.5288 37.3017 1.44648 35.8112 1.44844C35.8062 1.44187 35.8032 1.43408 35.8023 1.4259H13.1898C13.1898 1.43374 13.1898 1.44158 13.1898 1.44844C12.3421 1.46412 11.4925 1.45726 10.6497 1.56212C9.72543 1.65984 8.81555 1.86372 7.938 2.16972C6.57318 2.67315 5.34137 3.48163 4.3365 4.53348C3.18462 5.70408 2.35513 7.15272 1.92864 8.73866C1.54252 10.1812 1.45824 11.6522 1.45628 13.134L1.4406 35.8376C1.46804 36.8617 1.47686 37.8956 1.64934 38.9109C1.8326 39.9889 2.09426 41.0385 2.59406 42.0165C3.2588 43.3271 4.20603 44.4738 5.36746 45.374C6.19651 46.0348 7.13572 46.5441 8.14184 46.8783C9.6236 47.3566 11.1524 47.5398 12.7037 47.5486C13.672 47.5545 14.6383 47.579 15.6065 47.5751C22.637 47.5457 29.6685 47.626 36.699 47.532C37.6278 47.5116 38.5532 47.4132 39.4656 47.238C41.1909 46.934 42.7965 46.1525 44.1 44.982C45.6464 43.6022 46.6901 41.9146 47.1615 39.8772C47.4702 38.5454 47.5467 37.194 47.5604 35.8386V35.5681C47.5594 35.4623 47.5192 12.5283 47.5153 12.2245ZM41.5981 31.0405C41.5947 33.8396 40.4813 36.5231 38.5022 38.5025C36.523 40.4818 33.8396 41.5954 31.0405 41.5991H17.9595C15.1602 41.5957 12.4766 40.4822 10.4972 38.5028C8.51782 36.5234 7.40433 33.8398 7.40096 31.0405V17.9595C7.40433 15.1602 8.51782 12.4766 10.4972 10.4972C12.4766 8.51783 15.1602 7.40434 17.9595 7.40096H31.0405C33.8398 7.40434 36.5234 8.51783 38.5028 10.4972C40.4822 12.4766 41.5957 15.1602 41.599 17.9595L41.5981 31.0405Z" fill="white"/>
</svg>
