<svg width="52" height="52" viewBox="0 0 52 52" fill="none" xmlns="http://www.w3.org/2000/svg">
<path d="M27.5818 24.8574V24.7867C27.5671 24.8106 27.5515 24.8344 27.5359 24.8574H27.5818Z" fill="white"/>
<path d="M45.1869 4.28064H6.55355C4.70443 4.28064 3.20477 5.74452 3.20477 7.5487V46.6342C3.20477 48.4375 4.70443 49.9014 6.55355 49.9014H45.1869C47.0388 49.9014 48.5384 48.4366 48.5384 46.6342V7.5487C48.5384 5.74361 47.0378 4.28064 45.1869 4.28064ZM16.9457 42.471H10.0986V21.8711H16.9457V42.471ZM13.5226 19.0571H13.4767C11.18 19.0571 9.69411 17.4749 9.69411 15.4983C9.69411 13.4776 11.2259 11.9394 13.5675 11.9394C15.9101 11.9394 17.3511 13.4776 17.3969 15.4983C17.3969 17.4749 15.9092 19.0571 13.5226 19.0571ZM41.6363 42.471H34.7893V31.4478C34.7893 28.6796 33.7987 26.7902 31.3213 26.7902C29.4299 26.7902 28.3036 28.0642 27.8074 29.2951C27.6267 29.7344 27.5827 30.349 27.5827 30.9653V42.4701H20.7356C20.7356 42.4701 20.8255 23.8009 20.7356 21.8702H27.5827V24.786C28.4925 23.3827 30.1197 21.3841 33.7546 21.3841C38.2591 21.3841 41.6372 24.3293 41.6372 30.6572V42.471H41.6363Z" fill="white"/>
</svg>
