<svg width="25" height="25" viewBox="0 0 25 25" fill="none" xmlns="http://www.w3.org/2000/svg">
<path d="M12.5 9.66345C11.9389 9.66345 11.3905 9.82981 10.9241 10.1415C10.4576 10.4532 10.0941 10.8962 9.87937 11.4145C9.66468 11.9328 9.60851 12.5031 9.71796 13.0533C9.8274 13.6036 10.0976 14.109 10.4942 14.5057C10.8909 14.9024 11.3964 15.1725 11.9466 15.2819C12.4968 15.3914 13.0671 15.3352 13.5854 15.1205C14.1037 14.9058 14.5467 14.5423 14.8584 14.0758C15.1701 13.6094 15.3365 13.061 15.3365 12.5C15.3355 11.7479 15.0364 11.027 14.5046 10.4953C13.9729 9.96352 13.252 9.66438 12.5 9.66345V9.66345Z" fill="white"/>
<path d="M15.837 5.27448H9.16303C8.13211 5.27567 7.14374 5.68573 6.41477 6.41471C5.68579 7.14368 5.27573 8.13205 5.27454 9.16297V15.837C5.27573 16.8679 5.68579 17.8563 6.41477 18.5852C7.14374 19.3142 8.13211 19.7243 9.16303 19.7255H15.837C16.868 19.7243 17.8563 19.3142 18.5853 18.5852C19.3143 17.8563 19.7243 16.8679 19.7255 15.837V9.16297C19.7243 8.13205 19.3143 7.14368 18.5853 6.41471C17.8563 5.68573 16.868 5.27567 15.837 5.27448V5.27448ZM12.5 16.835C11.6427 16.835 10.8045 16.5807 10.0916 16.1044C9.37875 15.6281 8.82312 14.951 8.49502 14.1589C8.16691 13.3668 8.08106 12.4952 8.24833 11.6543C8.4156 10.8133 8.82847 10.0409 9.43473 9.43467C10.041 8.82841 10.8134 8.41554 11.6543 8.24827C12.4952 8.081 13.3668 8.16685 14.159 8.49496C14.9511 8.82306 15.6281 9.37869 16.1045 10.0916C16.5808 10.8045 16.835 11.6426 16.835 12.5C16.8337 13.6493 16.3766 14.7511 15.5639 15.5638C14.7512 16.3765 13.6493 16.8337 12.5 16.835V16.835ZM17.2635 8.82197C17.0519 8.82197 16.845 8.75923 16.669 8.64167C16.4929 8.5241 16.3557 8.357 16.2747 8.16148C16.1936 7.96596 16.1723 7.7508 16.2135 7.54318C16.2547 7.33557 16.3565 7.14482 16.506 6.99505C16.6556 6.84528 16.8462 6.7432 17.0538 6.70173C17.2613 6.66025 17.4765 6.68124 17.6722 6.76203C17.8678 6.84283 18.0351 6.9798 18.1529 7.15565C18.2707 7.33149 18.3337 7.53831 18.334 7.74997C18.3343 7.89072 18.3068 8.03014 18.2531 8.16025C18.1994 8.29036 18.1206 8.40861 18.0212 8.50823C17.9218 8.60784 17.8037 8.68687 17.6737 8.7408C17.5436 8.79472 17.4043 8.82247 17.2635 8.82247V8.82197Z" fill="white"/>
<path d="M24.2425 6.23704C24.2411 5.81295 24.2023 5.38981 24.1265 4.97254C24.0295 4.46304 23.893 3.96654 23.649 3.50604C23.3948 3.02086 23.0641 2.57986 22.6695 2.20004C22.0734 1.61653 21.3371 1.19637 20.5315 0.980039C19.79 0.780039 19.0315 0.738039 18.271 0.739039C18.2685 0.735688 18.2669 0.731711 18.2665 0.727539H6.72949C6.72949 0.731539 6.72949 0.735539 6.72949 0.739039C6.29699 0.747039 5.86349 0.743539 5.43349 0.797039C4.96194 0.846894 4.49772 0.950913 4.04999 1.10704C3.35365 1.36389 2.72517 1.77638 2.21249 2.31304C1.62479 2.91028 1.20159 3.64939 0.983985 4.45854C0.786985 5.19454 0.743985 5.94504 0.742985 6.70104L0.734985 18.2845C0.748985 18.807 0.753485 19.3345 0.841485 19.8525C0.934985 20.4025 1.06849 20.938 1.32349 21.437C1.66264 22.1057 2.14592 22.6907 2.73849 23.15C3.16147 23.4872 3.64066 23.747 4.15399 23.9175C4.90999 24.1615 5.68999 24.255 6.48149 24.2595C6.97549 24.2625 7.46849 24.275 7.96249 24.273C11.5495 24.258 15.137 24.299 18.724 24.251C19.1979 24.2406 19.67 24.1905 20.1355 24.101C21.0158 23.946 21.8349 23.5472 22.5 22.95C23.289 22.246 23.8215 21.385 24.062 20.3455C24.2195 19.666 24.2585 18.9765 24.2655 18.285V18.147C24.265 18.093 24.2445 6.39204 24.2425 6.23704ZM21.2235 15.837C21.2218 17.2651 20.6537 18.6343 19.6439 19.6442C18.6342 20.654 17.2651 21.2222 15.837 21.224H9.16299C7.73479 21.2223 6.36559 20.6542 5.3557 19.6443C4.34582 18.6344 3.77771 17.2652 3.77599 15.837V9.16304C3.77771 7.73485 4.34582 6.36564 5.3557 5.35576C6.36559 4.34587 7.73479 3.77776 9.16299 3.77604H15.837C17.2652 3.77776 18.6344 4.34587 19.6443 5.35576C20.6542 6.36564 21.2223 7.73485 21.224 9.16304L21.2235 15.837Z" fill="white"/>
</svg>
