<svg width="27" height="27" viewBox="0 0 27 27" fill="none" xmlns="http://www.w3.org/2000/svg">
<path d="M14.3232 12.9067V12.87C14.315 12.8824 14.3062 12.8948 14.2975 12.9067H14.3232Z" fill="white"/>
<path d="M23.4624 2.2226H3.40279C2.44267 2.2226 1.664 2.98269 1.664 3.91947V24.2139C1.664 25.1502 2.44267 25.9103 3.40279 25.9103H23.4624C24.424 25.9103 25.2026 25.1497 25.2026 24.2139V3.91947C25.2026 2.98221 24.4235 2.2226 23.4624 2.2226ZM8.79869 22.0522H5.24349V11.3561H8.79869V22.0522ZM7.02133 9.89497H6.99752C5.80499 9.89497 5.03347 9.07344 5.03347 8.04712C5.03347 6.99795 5.8288 6.19928 7.04467 6.19928C8.26101 6.19928 9.00919 6.99795 9.03301 8.04712C9.03301 9.07344 8.26053 9.89497 7.02133 9.89497ZM21.6188 22.0522H18.0636V16.3286C18.0636 14.8913 17.5493 13.9102 16.2629 13.9102C15.2809 13.9102 14.6961 14.5717 14.4384 15.2109C14.3446 15.439 14.3218 15.7581 14.3218 16.0781V22.0517H10.7666C10.7666 22.0517 10.8132 12.3581 10.7666 11.3556H14.3218V12.8696C14.7942 12.141 15.6391 11.1032 17.5264 11.1032C19.8653 11.1032 21.6193 12.6325 21.6193 15.9181V22.0522H21.6188Z" fill="white"/>
</svg>
