<svg width="120" height="41" viewBox="0 0 120 41" fill="none" xmlns="http://www.w3.org/2000/svg">
<path d="M13.84 32.48C12.8533 32.48 11.8667 32.3067 10.88 31.96C9.92 31.5867 9.10667 31.0667 8.44 30.4V40.4H2.88V14.12H7.68L8.16 16.2C9.06667 15.48 10.0667 14.88 11.16 14.4C12.28 13.8933 13.5467 13.64 14.96 13.64C16.5867 13.64 18.04 14.0267 19.32 14.8C20.6 15.5467 21.6 16.64 22.32 18.08C23.0667 19.4933 23.44 21.2 23.44 23.2C23.44 25.1733 23.0267 26.8533 22.2 28.24C21.3733 29.6267 20.24 30.68 18.8 31.4C17.36 32.12 15.7067 32.48 13.84 32.48ZM12.72 28.08C13.6267 28.08 14.4533 27.88 15.2 27.48C15.9733 27.08 16.5867 26.52 17.04 25.8C17.52 25.0533 17.76 24.2133 17.76 23.28C17.76 21.7867 17.3067 20.6 16.4 19.72C15.4933 18.8133 14.4 18.36 13.12 18.36C12 18.36 11.0667 18.5867 10.32 19.04C9.57333 19.4667 8.96 20.12 8.48 21V25.28C8.77333 26.1333 9.29333 26.8133 10.04 27.32C10.8133 27.8267 11.7067 28.08 12.72 28.08ZM33.2809 14.52L33.7209 18.52C34.2276 17.5067 34.9209 16.64 35.8009 15.92C36.6809 15.1733 37.5476 14.6133 38.4009 14.24C39.2543 13.84 39.9076 13.64 40.3609 13.64L40.0809 19.24C38.7743 19.08 37.6543 19.2933 36.7209 19.88C35.7876 20.4667 35.0676 21.24 34.5609 22.2C34.0543 23.16 33.8009 24.1467 33.8009 25.16V32H28.2409V14.52H33.2809ZM51.8212 32.48C50.1946 32.48 48.7146 32.16 47.3812 31.52C46.0746 30.8533 45.0346 29.84 44.2612 28.48C43.4879 27.12 43.1012 25.3867 43.1012 23.28C43.1012 21.3067 43.5012 19.6 44.3012 18.16C45.1012 16.72 46.1546 15.6133 47.4612 14.84C48.7679 14.04 50.1546 13.64 51.6212 13.64C53.3546 13.64 54.6612 13.92 55.5412 14.48C56.4479 15.04 57.1679 15.6533 57.7013 16.32L58.0613 14.52H63.2613V32H57.6612V29.84C57.3946 30.1067 56.9946 30.4533 56.4612 30.88C55.9546 31.3067 55.3146 31.68 54.5412 32C53.7679 32.32 52.8612 32.48 51.8212 32.48ZM53.4212 27.92C55.3679 27.92 56.7812 27.04 57.6612 25.28V21C57.3412 20.1467 56.7812 19.4667 55.9812 18.96C55.2079 18.4533 54.2879 18.2 53.2212 18.2C52.0212 18.2 50.9812 18.6533 50.1012 19.56C49.2212 20.44 48.7812 21.5867 48.7812 23C48.7812 23.9333 48.9946 24.7733 49.4212 25.52C49.8479 26.2667 50.4079 26.8533 51.1012 27.28C51.8212 27.7067 52.5946 27.92 53.4212 27.92ZM74.4716 14.52L74.9116 18.52C75.4182 17.5067 76.1116 16.64 76.9916 15.92C77.8716 15.1733 78.7382 14.6133 79.5916 14.24C80.4449 13.84 81.0982 13.64 81.5516 13.64L81.2716 19.24C79.9649 19.08 78.8449 19.2933 77.9116 19.88C76.9782 20.4667 76.2582 21.24 75.7516 22.2C75.2449 23.16 74.9916 24.1467 74.9916 25.16V32H69.4316V14.52H74.4716ZM82.3562 29.12C82.3562 28.2933 82.6496 27.6 83.2362 27.04C83.8496 26.48 84.5162 26.2 85.2362 26.2C85.9029 26.2 86.5296 26.48 87.1162 27.04C87.7296 27.6 88.0362 28.2933 88.0362 29.12C88.0362 30 87.7296 30.7067 87.1162 31.24C86.5296 31.7467 85.9029 32 85.2362 32C84.5162 32 83.8496 31.7467 83.2362 31.24C82.6496 30.7067 82.3562 30 82.3562 29.12ZM91.9113 32V0.439999H97.5113V20.2L105.831 14.08L109.231 17.08L103.031 21.76L109.871 32H103.351L99.0713 24.72L97.5113 25.88V32H91.9113Z" fill="white"/>
</svg>
